<svg xmlns="http://www.w3.org/2000/svg" viewBox="0 0 378.71 94.2"><path fill="#242F35" d="M0 7.47h44.23v82.57H0z"/><path fill-rule="evenodd" clip-rule="evenodd" fill="#FFF" d="M3.37 11.06h37.27v37.09H3.37V11.06z"/><path fill="none" stroke="#242F35" stroke-width=".19" stroke-miterlimit="2.61" d="M22.07 17.16v19.52m7.02-16.67L15.23 33.85m-2.83-6.83h19.33m-16.5-6.82L28.9 33.86"/><path fill-rule="evenodd" clip-rule="evenodd" fill="#242F35" d="M14.64 17.87c-.26 0-.56.2-.88.36-.49.24-1 .52-1.39.94-.59.61-.83 1.7-1 2.27-.02.1.25-.13.66-.5.35-.32.82-.75 1.2-1.27.6-.82.82-1.11 1.41-1.8z"/><path fill-rule="evenodd" clip-rule="evenodd" fill="#242F35" d="M12.06 19.2c-.32.13-.58.57-.79 1.15-.08.23-.13.57-.2.78-.11.3-.15.63-.23.92-.1.4-.21.77-.31 1.07-.06.19.1-.4.65-1 .19-.2.47-.43.74-.63.18-.12.37-.2.5-.34.23-.26.6-.55.8-.8.15-.2.18-.39.18-.32-.01.18-.02.5-.12.8-.1.26-.27.49-.35.62-.25.4-.41.57-.71.82-.5.43-.94.8-1.1.91-.32.25-.64.66-.8.91-.1.15-.14.28-.14.19 0-.4-.09-.97-.08-2.02 0-.6.09-1.2.31-1.68.12-.26.28-.45.51-.7.33-.35.73-.66 1.14-.68z"/><path fill-rule="evenodd" clip-rule="evenodd" fill="#242F35" d="M9.88 21.08c-.04.1-.16.42-.22.8-.05.33-.03.71-.02 1.03.01.47.14.92.17 1.4.03.66-.01 1.28-.04 1.82 0 .02.1-.6.39-1.17.17-.33.38-.63.66-.9.5-.5 1-1.03 1.3-1.28.01 0-.07.75-.4 1.46a5.8 5.8 0 0 1-.9 1.28c-.14.14-.27.4-.43.66-.16.27-.34.55-.44.8-.17.4-.2.7-.21.68-.16-.42-.18-.81-.3-1.18-.15-.47-.4-.9-.5-1.48-.07-.34-.15-.7-.14-1.06.02-.44.08-1 .2-1.32.1-.23.66-1.41.88-1.54z"/><path fill-rule="evenodd" clip-rule="evenodd" fill="#242F35" d="M11.36 25.28c0 .23.05.44.04.65-.05 1-.28 1.77-.5 2.5-.17.55-.46 1.1-.46 1.9 0 .7.07 1.17 0 1.04-.04-.1-.36-.6-.74-1.04-.62-.74-1.05-1.2-1.33-2.2a5.97 5.97 0 0 1-.2-2.23c.06-.46.2-.88.33-1.24.04-.13-.1.32.02.95.05.27.21.58.3.9.12.45.42.81.6 1.27.18.46.23 1.02.33 1.37.15.58.25.92.25.86-.01-.3-.1-.58-.11-.83-.02-.53.06-1 .33-1.66.16-.38.41-.64.6-1 .24-.44.54-.8.54-1.24z"/><path fill-rule="evenodd" clip-rule="evenodd" fill="#242F35" d="M8.18 28.8c.14.34.25.85.64 1.36.48.63 1.27 1.27 1.75 1.85.23.29.37.6.53.82.15.22.32.35.38.43.12.17-.51-.7-.56-1.68-.03-.77.24-1.72.26-2.06.03-.64.07-1.17.14-.92.03.1.2.56.33 1.18.15.7.23 1.58.23 1.85 0 .66.07 1.33.25 1.94.1.34.28.67.42.96.11.22-2.42-1.42-3.02-2.07A4.76 4.76 0 0 1 8.17 30c-.07-.4.02-.78 0-1.22z"/><path fill-rule="evenodd" clip-rule="evenodd" fill="#242F35" d="M12.15 31.26c.24.24.4.5.57.75.26.36.5.67.67 1.05.28.58.47 1.27.75 1.98.13.32.32.82.55 1.1.28.38.57.66.54.67-.01 0-.14-.09-.5-.16-.92-.18-1.58-.24-2.18-.42a5.6 5.6 0 0 1-2.27-1.48 5.11 5.11 0 0 1-1.2-2.22c.11.08.38.67 1.2 1.32.3.24.7.37 1.1.57.54.27.98.5 1.43.79.27.17.53.4.82.6.3.2.51.28.53.31.18.21-.5-.35-.9-1.02-.16-.26-.37-.57-.46-.9-.17-.56-.18-1.2-.3-1.79-.1-.42-.23-.78-.35-1.15z"/><path fill-rule="evenodd" clip-rule="evenodd" fill="#242F35" d="M14.2 34.2c.37.28.9.71 1.51 1.27.29.26.53.57.84.84.26.24.6.46.86.63.48.32.9.38 1.33.48.07.02-.12.05-.5.16-.37.1-.93.3-1.7.43-.52.08-1.06.17-1.6.15a4.45 4.45 0 0 1-2.67-.91c-.6-.49-.88-.96-1.03-1.17 0-.02.77.58 1.85.86.58.15 1.26.1 1.97.18.23.03.53.02.77.06.46.07.85.18 1.24.18 0 0-.91-.2-1.52-.78-.79-.75-1.13-1.92-1.36-2.39z"/><path fill-rule="evenodd" clip-rule="evenodd" fill="#242F35" d="M13.55 38.32c.26.25.45.46.7.63 2.04 1.42 3.74.58 4.92-.22.5-.33.75-.6 1.14-.76.18-.08.33-.15.65-.18.37-.04 1.02.1 1.45.32a10.5 10.5 0 0 1 2.9 2.42c.04.04.64-.47.62-.49-.44-.32-.8-.72-1.25-1.07-.34-.28-.75-.51-1.12-.73-.45-.27-.81-.4-1.2-.52a5.4 5.4 0 0 0-1.17-.27 4.19 4.19 0 0 0-2.04.17l-2.57 1.07c-.46-.07-1 .2-1.45.13a5.18 5.18 0 0 1-1.58-.5zM29.71 17.87c.26 0 .57.2.88.36.49.24 1 .52 1.4.94.58.61.83 1.7.99 2.27.02.1-.25-.13-.65-.5a8.57 8.57 0 0 1-1.21-1.27c-.6-.82-.81-1.11-1.4-1.8z"/><path fill-rule="evenodd" clip-rule="evenodd" fill="#242F35" d="M32.3 19.2c.3.13.58.57.78 1.15.09.23.14.57.21.78.1.3.15.63.22.92.1.4.22.77.32 1.07.06.19-.11-.4-.65-1-.2-.2-.47-.43-.75-.63-.18-.12-.37-.2-.5-.34-.22-.26-.59-.55-.79-.8-.16-.2-.18-.39-.18-.32 0 .18.02.5.12.8.09.26.26.49.35.62.24.4.4.57.7.82.51.43.94.8 1.1.91.33.25.64.66.81.91.1.15.13.28.13.19 0-.4.1-.97.09-2.02 0-.6-.1-1.2-.32-1.68a2.57 2.57 0 0 0-.5-.7c-.34-.35-.73-.66-1.14-.68z"/><path fill-rule="evenodd" clip-rule="evenodd" fill="#242F35" d="M34.47 21.08c.04.1.17.42.22.8.05.33.04.71.03 1.03-.02.47-.15.92-.17 1.4-.04.66 0 1.28.03 1.82 0 .02-.09-.6-.39-1.17a3.42 3.42 0 0 0-.65-.9c-.5-.5-1-1.03-1.31-1.28 0 0 .07.75.4 1.46.31.65.88 1.26.9 1.28.14.14.28.4.43.66.16.27.34.55.45.8.16.4.2.7.2.68.16-.42.19-.81.3-1.18.16-.47.4-.9.51-1.48.06-.34.15-.7.13-1.06a4.9 4.9 0 0 0-.2-1.32 6.3 6.3 0 0 0-.88-1.54z"/><path fill-rule="evenodd" clip-rule="evenodd" fill="#242F35" d="M32.99 25.28c0 .23-.05.44-.04.65.05 1 .29 1.77.5 2.5.17.55.46 1.1.46 1.9 0 .7-.07 1.17 0 1.04.05-.1.37-.6.74-1.04.62-.74 1.05-1.2 1.33-2.2.2-.72.28-1.51.2-2.23-.06-.46-.2-.88-.32-1.24-.05-.13.09.32-.03.95-.05.27-.2.58-.3.9-.12.45-.41.81-.6 1.27-.17.46-.23 1.02-.32 1.37l-.25.86c0-.3.1-.58.1-.83.03-.53-.06-1-.33-1.66-.16-.38-.41-.64-.6-1-.23-.44-.54-.8-.54-1.24z"/><path fill-rule="evenodd" clip-rule="evenodd" fill="#242F35" d="M36.18 28.8c-.14.34-.25.85-.65 1.36-.47.63-1.27 1.27-1.74 1.85-.24.29-.38.6-.53.82-.16.22-.32.35-.38.43-.13.17.5-.7.55-1.68.03-.77-.24-1.72-.25-2.06-.03-.64-.08-1.17-.15-.92-.03.1-.2.56-.33 1.18-.14.7-.23 1.58-.23 1.85 0 .66-.07 1.33-.25 1.94-.1.34-.28.67-.42.96-.1.22 2.42-1.42 3.02-2.07A4.76 4.76 0 0 0 36.2 30c.06-.4-.02-.78-.01-1.22z"/><path fill-rule="evenodd" clip-rule="evenodd" fill="#242F35" d="M32.2 31.26c-.24.24-.4.5-.57.75-.26.36-.5.67-.67 1.05-.28.58-.46 1.27-.75 1.98-.12.32-.32.82-.54 1.1-.3.38-.58.66-.55.67.02 0 .14-.09.5-.16.93-.18 1.59-.24 2.18-.42a5.6 5.6 0 0 0 2.27-1.48 5.11 5.11 0 0 0 1.2-2.22c-.1.08-.37.67-1.2 1.32-.29.24-.7.37-1.1.57-.53.27-.98.5-1.43.79-.26.17-.52.4-.81.6-.3.2-.52.28-.54.31-.17.21.5-.35.91-1.02.16-.26.36-.57.46-.9.16-.56.18-1.2.3-1.79.1-.42.22-.78.34-1.15z"/><path fill-rule="evenodd" clip-rule="evenodd" fill="#242F35" d="M30.16 34.2c-.38.28-.91.71-1.52 1.27-.28.26-.53.57-.83.84-.27.24-.6.46-.86.63-.49.32-.9.38-1.34.48-.07.02.13.05.5.16.38.1.94.3 1.7.43.52.08 1.06.17 1.6.15.97-.03 1.92-.3 2.67-.91.6-.49.88-.96 1.03-1.17.01-.02-.77.58-1.85.86-.58.15-1.26.1-1.96.18-.24.03-.54.02-.77.06-.46.07-.85.18-1.24.18 0 0 .9-.2 1.52-.78.78-.75 1.13-1.92 1.35-2.39z"/><path fill-rule="evenodd" clip-rule="evenodd" fill="#242F35" d="M30.8 38.32c-.26.25-.45.46-.7.63-2.04 1.42-3.74.58-4.92-.22-.5-.33-.75-.6-1.14-.76-.18-.08-.33-.15-.64-.18a3.25 3.25 0 0 0-1.46.32 10.5 10.5 0 0 0-2.9 2.42c-.04.04-.64-.47-.62-.49.44-.32.8-.72 1.25-1.07.34-.28.75-.51 1.12-.73.45-.27.82-.4 1.2-.52a5.4 5.4 0 0 1 1.17-.27 4.19 4.19 0 0 1 2.05.17l2.56 1.07c.46-.07 1 .2 1.45.13a5.17 5.17 0 0 0 1.59-.5z"/><path fill="none" stroke="#242F35" stroke-width=".19" stroke-miterlimit="2.61" d="M22.14 17.09a9.8 9.8 0 0 1 9.78 9.77 9.8 9.8 0 0 1-9.78 9.78 9.8 9.8 0 0 1-9.79-9.78 9.8 9.8 0 0 1 9.79-9.77m0 1.97c4.3 0 7.8 3.5 7.8 7.8a7.82 7.82 0 0 1-15.62 0c0-4.3 3.52-7.8 7.82-7.8m0 2.2a5.61 5.61 0 1 1-5.6 5.6c0-3.08 2.51-5.6 5.6-5.6m0 1.7a3.91 3.91 0 0 1 0 7.8 3.91 3.91 0 0 1 0-7.8"/><path fill-rule="evenodd" clip-rule="evenodd" fill="#FFF" d="M22.14 24.9a1.98 1.98 0 0 1 0 3.94 1.98 1.98 0 0 1 0-3.95z"/><path fill-rule="evenodd" clip-rule="evenodd" fill="#242F35" d="M23.32 18.65c.16 0 .55.04.68-.02.3-.14.42-.25.02-.4-.36-.14-.49-.1-.86-.04-.21.03-.3.22-.51.22-.14 0-.14.2-.04.28.23.17.72.08.71-.04zM26.68 19.32c-.18 0-.2.09-.09.22.14.17.45.39.46.33 0-.08-.05-.23.02-.35.02-.05-.08-.1-.23-.14-.05-.02-.08-.06-.16-.06zM26.41 19.64c-.13 0-.34.04-.5.09-.08.02-.19 0-.2.05l-.04.94c0 .15.23.18.27.23.02.04-.03.1-.03.14 0 .1.07.23.08.35 0 .12-.06.23 0 .3.02.01.21-.19.36-.24.07-.03.13.06.16.06.1 0 .26.3.27.37.02.12-.07.22-.06.3.02.22.17.32.46.36.13.02.17.16.24.26.13.18.29.34.55.3.13-.02.34.3.44.46.1.16.14.28.3.32.07.02.16-.06.29-.01.33.13.45.16.4-.22-.06-.59-.29-.76-.41-.98-.21-.37-.4-.58-.86-1.07a4.44 4.44 0 0 1-.75-1.28c-.04-.1-.14-.13-.2-.2-.12-.14-.24-.27-.39-.31-.04-.02-.05-.08-.15-.12-.05-.02-.09-.06-.23-.1z"/><path fill-rule="evenodd" clip-rule="evenodd" fill="#242F35" d="M25.6 21.48c-.04-.07-.28-.35-.27-.29l.2.7c.05.15-.01.42.02.47.02.04-.05.1-.02.14.2.36.24.2.44.4.05.06.13.07.16.07.1 0 .26.3.27.37 0 .06.3.34.45.65.08.16-.11.36-.09.5.03.13.27.2.3.22.13.12.34.3.42.53.06.14.02.32 0 .45-.08.4-.56.68-.32.68.23 0 .6-.3.72-.74.07-.21-.01-.45-.02-.7 0-.05.08-.19.07-.24a.89.89 0 0 0-.16-.43c-.06-.06-.15-.03-.2-.1-.04-.08.13-.22.12-.26-.05-.1-.18 0-.21-.1-.01-.05.13-.13.12-.2 0-.04-.13-.05-.17-.1-.04-.04-.24.16-.3.12-.08-.04-.03-.19-.11-.27a2.55 2.55 0 0 1-.59-.8c-.04-.1-.2-.47-.26-.54-.03-.03-.03-.14-.06-.16-.11-.1-.21-.05-.3-.14l-.2-.23zM23.06 33.22c0-.07 0-.16-.1-.18-.08-.03-.26.01-.37 0-.37-.08-.8-.15-.92-.28l-.48-.5c-.2-.2-.5-.42-.53-.74 0-.1 0-.1.1-.25.05-.07.03-.17.08-.26.08-.11.17-.07.27-.17.18-.17.44-.57.59-.43l.11.11.23.02.2-.11h.33c.14-.01.43.3.62.26.17-.03.2-.16.34-.26.14-.11.4-.2.53-.19.13.01.26.16.37.2.2.07.37.04.54.16.33.23.6.52 1 .6.11.03 0 .21.02.36 0 .09.09.18.19.18.09 0 .16.06.22.1.08.07.14.14.14.28 0 .15-.2.17-.3.46-.03.1.15.15.15.32 0 .21-.17.55-.21.64-.12.3-.36.5-.56.79-.19.26-.41.47-.68.58-.18.07-.34.12-.5.03-.25-.16-.47-.54-.74-.7-.17-.1-.29-.22-.42-.32-.14-.1-.43-.26-.32-.5l.1-.2zM27.4 31.2c.05.1.08.22.12.32.08.23.2.4-.02.44-.17.04-.2.32-.31.31-.12 0-.15-.07-.2-.11-.13-.13-.07-.35 0-.67l.1-.38c.04-.16.11-.22.3.1zM15.1 29.01c-.01.04-.35-.05-.7-.07-.05 0-.09-.22-.14-.21-.18.03-.14.12-.29.2-.18.09-.38-.13-.49.02a.85.85 0 0 0-.16.59c.03.24.01.44.22.64.14.14.09-.01.28.13.06.05.06.14.13.2.08.05.18-.08.27-.02l.22.19c.14.09.27.14.42.23.09.06-.06.14.04.2.11.07.2.17.32.24.06.03.09-.1.15-.07.1.05.06.19.16.24.07.03.1.15.17.18.11.05.54.53.65.57.35.13.42-.07.67-.12.13-.03.21.2.39.22.15.02.4-.17.5-.17.1 0 .59-.02.65-.06.18-.12.03-.04 0-.39-.03-.44-.62-.41-.87-1.02-.05-.12.3-.23.25-.36-.08-.2-.18-.34-.27-.53-.08-.16.05-.5-.03-.66-.16-.3-.06-.87-.34-.96-.12-.03-.22-.62-.34-.66-.1-.03-.05.55-.15.55-.24 0-.56-.54-.81-.52-.2.02-.51.23-.66.47-.12.2-.16.75-.24.95z"/><path fill-rule="evenodd" clip-rule="evenodd" fill="#242F35" d="M16.98 27.59c0-.19.3-.2.43-.15.1.03.02-.13.04-.23.02-.16.12-.77.27-.85.1-.06.35-.01.43.03.21.12 0 .61.04.85.04.26-.37.1-.22.17.08.04-.08-.22-.23-.12-.05.03-.01.12-.02.2 0 .1-.06.17.06.22.04.01-.33.04-.28.05.13.04.04.27.26.29.08 0 .11-.18.14-.27.05-.14-.05-.18.05-.18h.13c.06.02.17.02.24.03.26.05.53.05.74.1.08.03.03.1.06.15.03.05.13.06.2.03.1-.04.05.09.1.24.02.06.05.2.24.13.05-.02-.14-.16.05-.2.04-.02.03.4.2.4.27 0 .26-.21.27-.36 0-.13.21.08.32.03.21-.11.19-.24.17-.53 0-.07.13.1.16.03.04-.08.06-.21.12-.33.05-.1.17-.17.16-.26 0-.11-.22-.12-.28-.19-.08-.08-.02-.18-.02-.27-.01-.15.02-.33.16-.44.16-.14.37-.39.52-.4.11-.02.2.04.3-.12.1-.17-.03-.26-.01-.5.01-.17.1.21.21.36.15.2.32.2.33.17 0-.02.1-.12.16-.08.11.06.22.36.4.48.04.03.07.17.1.3.02.07-.2.21-.18.26.02.07.09.1.16.11.05 0 .13.12.16.27.05.2.05.42.08.37.03-.05.14.28-.03.37-.12.07-.49.13-.58.19-.33.22-.21.39-.18.38.04 0-.2.11-.34.14-.19.05-.67-.08-.58-.06.14.04.4.37.41.73 0 .26-.08.53.12.58.1.02.3-.02.53-.05.44-.08.97-.21 1.02-.32.04-.1.19-.1.25-.13.12-.04.17-.06.2.05 0 .1-.13.1-.17.11-.08.06-.2 0-.7.16-.2.06-.47.1-.76.14-.25.03-.52.06-.69.12-.07.03 0 .1-.04.13-.2.1-.09.34-.1.36-.02.03-.02.26.27.13.2-.1.7-.55.86-.58.11-.02.14.12.18.14.09.03.14.12.24.13.05 0 .05-.15.1-.15.09.01.2.13.29.13.05 0 .04-.15.09-.16.17-.03.31-.09.39-.17.09-.1.25 0 .28.04.05.1-.24.32-.17.42.07.1.26-.01.46 0 .2 0 .43.14.6.13.25-.01.43.16.58.1.05-.03.18-.62.21-.67.16-.23.17-.69-.12-.77-.13-.04-.25.3-.49.42-.1.06-.28-.02-.43-.04-.07 0 .15 0 .22-.02.1-.04.2-.1.23-.1.06 0 .33-.18.51-.37.14-.13.2-.28.26-.3.07-.03.15.06.21.04.05-.01.07-.13.12-.13.96-.05 1.46-.06 1.74-.18.34-.15-.1-.41-.36-.46-.07-.01-.28.29-.26.28.07-.04-.11-.24-.35-.49-.1-.11-.18-.27-.28-.41-.03-.05-.1-.04-.12-.1-.06-.2.36-.37.31-.7-.03-.23-.17-.11-.18-.43-.02-.28-.06-.33.14-.4.2-.06.14-.23.21-.32.05-.05-.17-.23-.43-.3-.1-.03-.22.11-.3.11-.1 0-.15-.13-.15-.16-.02-.1 0-.28-.15-.4-.04-.03-.13-.15-.24-.17-.2-.04-.48.03-.77-.06-.34-.1-.72-.32-.85-.37-.05-.02-.3.22-.3.37 0 .11.26.14.25.13-.07-.06-.38.16-.64.4-.17.15-.32.38-.38.35-.19-.11-.27-.26-.31-.26-.14-.01-.3.07-.27.05.12-.13.33-.23.44-.32.1-.1.11-.18.17-.2.13-.05.01-.2-.04-.27-.04-.06.03-.16-.06-.14-.17.02-.47.35-.52.34-.35-.12-.96-.1-1.17-.04-.14.04-.12-.19-.2-.16-.38.13-.08.3-.3.5a.6.6 0 0 1-.33.12c-.06 0-.12-.04-.14-.03-.13.03-.15-.14-.24-.11-.15.05-.03.14-.13.11-.12-.02-.04-.15-.06-.25-.02-.06-.11-.1-.17-.11-.32-.11-.23-.07-.57-.23-.06-.03-.2-.1-.3-.06-.13.05-.2.25-.33.33-.12.07-.2.04-.3.14-.11.09-.15.23-.23.3-.2.18-.33 0-.37.25-.01.04-.04.14-.12.18-.09.05-.13-.03-.23.03-.08.05-.12.18-.15.2-.18.14-.19.5-.2.77-.03.26-.17.5-.18.7 0 .03-.15.22-.17.34-.03.16-.02.3.01.44.04.13.06.15.08.11.03-.06.03-.27.03-.33z"/><path fill-rule="evenodd" clip-rule="evenodd" fill="#242F35" d="M21.21 27.31c.02-.07-.03-.2.03-.24.16-.13.5-.09.6-.03.09.07.19.16.17.3 0 .12-.11.27-.18.4-.08.15-.06.32-.16.39-.07.05-.39-.02-.46 0-.06 0 .08.12.1.15.23.51-.68-.13-.57-.52.02-.04.1 0 .17-.05.13-.1.3-.28.3-.4zM25.75 30.61c.4-.53.2-.52.4-.55.01 0 .03.04.06.15.02.05 0 .17.03.2.05.06.14 0 .22.03.08.03.15.12.26.15.05 0-.24.14-.31.25-.06.1.13.18-.22.14-.32-.04-.34-.4-.44-.37z"/><path fill-rule="evenodd" clip-rule="evenodd" fill="#FFF" d="M20.1 26.74c-.14.08-.12.1-.12.26 0 .08-.15.07-.15.15 0 .05-.1.18-.06.14.1-.13.27-.11.3-.08.03.04.06-.01.1-.01.08 0 .27.07.27-.05 0-.07.2-.03.2 0 .01.06.08.16.13.07.03-.06.07-.08.03-.15-.01-.04-.15-.04-.18-.04-.14.03-.1-.14-.14-.23-.06-.13-.15-.01-.23-.08-.06-.04-.03-.06-.14-.02v.04zM3.5 49.33h18.11v18.02H3.5V49.33zM3.5 68.44h18.11v18.02H3.5V68.44zM22.63 49.33h18.11v18.02H22.63V49.33zM22.63 68.44h18.11v18.02H22.63V68.44z"/><path fill-rule="evenodd" clip-rule="evenodd" fill="#242F35" stroke="#FFF" stroke-width=".04" stroke-miterlimit="2.61" d="M35.92 63.14l-.15-11.11H37v12.61h-1.49l-6.93-11.12.14 11.12H27.5V52.03h1.49l6.93 11.11zM9.29 72.35v10.22h2.57c1.6 0 2.84-.45 3.71-1.35.87-.9 1.3-2.18 1.3-3.83 0-.83-.14-1.6-.44-2.29-.3-.7-.72-1.28-1.26-1.76a3.67 3.67 0 0 0-1.38-.76 8.11 8.11 0 0 0-2.22-.23H9.29zm-1.22-1.2h3.58c1 0 1.82.1 2.5.29.67.2 1.26.5 1.78.94a6.2 6.2 0 0 1 1.68 2.23c.4.88.6 1.81.6 2.81 0 1.12-.22 2.13-.66 3.05a5.75 5.75 0 0 1-1.87 2.24c-.53.37-1.1.64-1.72.8-.62.17-1.57.25-2.86.25H8.06V71.14zM29.74 72.38v4.8h1.83c1.01 0 1.77-.18 2.25-.57.49-.39.73-.98.73-1.8 0-.84-.25-1.45-.73-1.84-.5-.4-1.28-.59-2.36-.59h-1.72zm-1.24-1.24h2.68c.77 0 1.38.04 1.84.12.47.08.85.21 1.16.4a3.47 3.47 0 0 1 1.72 3.1 3.9 3.9 0 0 1-.4 1.77 3.23 3.23 0 0 1-2.32 1.77c-.47.1-1.06.15-1.78.15h-1.66v5.3H28.5v-12.6zM9.01 51.9h1.24v7.97c0 .62.03 1.09.08 1.39.05.3.13.58.24.81.23.49.56.86 1 1.13.43.27.93.4 1.48.4.95 0 1.65-.32 2.11-.97.46-.64.69-1.65.69-3.02V51.9h1.22v8.02c0 1.63-.33 2.85-.98 3.66-.65.8-1.63 1.2-2.96 1.2-1.41 0-2.45-.4-3.12-1.18-.66-.78-1-2.01-1-3.68V51.9z"/><g><g fill="#FFF"><path d="M153.97 68.62l1.95-2.78a7.32 7.32 0 0 0 5.3 2.28c1.97 0 2.9-.88 2.9-1.85 0-2.9-9.6-.88-9.6-7.15 0-2.78 2.4-5.07 6.32-5.07 2.65 0 4.85.8 6.5 2.32l-1.98 2.65a7.16 7.16 0 0 0-4.85-1.83c-1.5 0-2.35.65-2.35 1.65 0 2.63 9.58.85 9.58 7.08 0 3.05-2.2 5.35-6.68 5.35-3.22 0-5.52-1.08-7.1-2.65zM170.62 70.97V54.3h6.57c5.22 0 8.85 3.32 8.85 8.32 0 5.05-3.63 8.35-8.82 8.35h-6.6zm11.8-8.35c0-2.93-1.8-5.2-5.2-5.2h-3.05v10.42h3.02c3.3 0 5.22-2.37 5.22-5.22zM188.27 62.64c0-5.27 4-8.62 8.9-8.62a7.78 7.78 0 0 1 6.87 3.72l-2.93 1.6a4.79 4.79 0 0 0-3.95-2.17c-3.05 0-5.25 2.32-5.25 5.47s2.2 5.48 5.25 5.48c2.38 0 3.8-1.53 4.33-3.28h-5.2v-3.12h9.1c0 5.95-3.23 9.55-8.55 9.55a8.4 8.4 0 0 1-8.57-8.63zM214.49 70.97V54.3h3.55v16.67h-3.55zM233.34 70.97l-7.95-10.88v10.88h-3.55V54.3h3.65l7.72 10.47V54.3h3.55v16.67h-3.42zM244.41 70.97V57.42h-4.87v-3.13h13.3v3.13h-4.85v13.55h-3.58zM255.61 70.97V54.3h11.8v3.12h-8.25v3.5h8.08v3.12h-8.08v3.8h8.25v3.13h-11.8zM269.89 62.64c0-5.27 4-8.62 8.9-8.62a7.78 7.78 0 0 1 6.87 3.72l-2.92 1.6a4.79 4.79 0 0 0-3.95-2.17c-3.05 0-5.25 2.32-5.25 5.47s2.2 5.48 5.25 5.48c2.37 0 3.8-1.53 4.32-3.28h-5.2v-3.12h9.1c0 5.95-3.22 9.55-8.55 9.55a8.4 8.4 0 0 1-8.57-8.63zM298.61 70.97l-3.27-5.93h-2.6v5.93h-3.55V54.3h7.8c3.47 0 5.62 2.27 5.62 5.37a4.82 4.82 0 0 1-3.67 4.95l3.77 6.35h-4.1zm.35-11.33c0-1.37-1.07-2.22-2.47-2.22h-3.75v4.5h3.75c1.4 0 2.47-.85 2.47-2.28zM317.29 70.97l-1.05-2.83h-7.15l-1.05 2.83h-4.02l6.42-16.68h4.45l6.42 16.68h-4.02zm-4.63-13.13l-2.6 7.18h5.2l-2.6-7.18zM325.61 70.97V57.42h-4.87v-3.13h13.3v3.13h-4.85v13.55h-3.58zM336.81 70.97V54.3h3.55v16.67h-3.55zM343.36 62.64c0-5.02 3.68-8.62 8.73-8.62 5.02 0 8.7 3.6 8.7 8.62s-3.68 8.63-8.7 8.63c-5.05 0-8.73-3.6-8.73-8.63zm13.78 0c0-3.12-1.98-5.47-5.05-5.47-3.1 0-5.08 2.35-5.08 5.47 0 3.1 1.98 5.48 5.08 5.48 3.07 0 5.05-2.38 5.05-5.48zM375.29 70.97l-7.95-10.88v10.88h-3.55V54.3h3.65l7.72 10.47V54.3h3.55v16.67h-3.42z"/></g></g><g fill="#FFF"><path d="M155.72 27.59c0-2.53 1.92-4.14 4.26-4.14 1.67 0 2.71.84 3.31 1.79l-1.41.77a2.27 2.27 0 0 0-1.9-1.05c-1.45 0-2.5 1.12-2.5 2.63 0 1.51 1.05 2.63 2.5 2.63.7 0 1.38-.32 1.7-.62v-.96h-2.1v-1.48h3.8v3.07a4.44 4.44 0 0 1-3.4 1.5c-2.34 0-4.26-1.62-4.26-4.14zM164.75 31.58v-8h1.7v6.5h3.38v1.5h-5.08zM170.31 27.59a4.02 4.02 0 0 1 4.18-4.14 4.02 4.02 0 0 1 4.18 4.14 4.02 4.02 0 0 1-4.18 4.14 4.02 4.02 0 0 1-4.18-4.14zm6.61 0c0-1.5-.96-2.63-2.43-2.63-1.48 0-2.43 1.13-2.43 2.63 0 1.48.95 2.62 2.43 2.62 1.47 0 2.43-1.14 2.43-2.62zM179.88 31.58v-8h4.2c1.53 0 2.31.97 2.31 2.04 0 1-.62 1.68-1.38 1.84.85.13 1.54.96 1.54 1.96 0 1.2-.8 2.16-2.33 2.16h-4.34zm4.77-5.66c0-.5-.36-.87-.93-.87h-2.14v1.73h2.14c.57 0 .93-.36.93-.86zm.16 3.26c0-.5-.36-.93-1.03-.93h-2.2v1.86h2.2c.64 0 1.03-.35 1.03-.93zM193.35 31.58l-.5-1.35h-3.42l-.5 1.35h-1.95l3.1-8h2.13l3.08 8h-1.94zm-2.2-6.3l-1.25 3.45h2.5l-1.26-3.44zM196.04 31.58v-8h1.7v6.5h3.39v1.5h-5.09z"/></g><path fill="none" stroke="#FFF" stroke-miterlimit="10" d="M155.31 37.88h35.34"/><path fill="none" stroke="#39494F" stroke-miterlimit="10" d="M59.61 94.2V0"/><g><path fill="#5EBA47" d="M90.46 40.57a16.6 16.6 0 0 1 2.61-3.37l-8.58-9.4c-2.16 2.05-4 4.45-5.45 7.08l11.42 5.69z"/><path fill="#E4B633" d="M111.5 33.92c1.3.6 2.5 1.36 3.6 2.26l8.6-9.4a29.27 29.27 0 0 0-7.63-4.76l-4.58 11.9z"/><path fill="#C4202E" d="M131.2 36.75l-11.4 5.69c.54 1.27.93 2.62 1.14 4.03l12.69-1.2c-.38-3-1.2-5.87-2.43-8.52"/><path fill="#4B9E46" d="M118.98 40.79l11.4-5.69a29.33 29.33 0 0 0-5.33-7.07l-8.6 9.4c.98 1 1.83 2.13 2.53 3.36"/><path fill="#407F44" d="M88.19 48.9c0-.26 0-.52.02-.77l-12.7-1.14a29.22 29.22 0 0 0 .8 8.96l12.27-3.51a16.42 16.42 0 0 1-.39-3.55"/><path fill="#F9C213" d="M117.38 59.32c-.9 1.1-1.94 2.08-3.1 2.91l6.7 10.85a29.42 29.42 0 0 0 6.57-6.09l-10.17-7.67z"/><path fill="#EE402B" d="M121.12 48.9c0 1.2-.13 2.37-.38 3.5L133 55.91a29.1 29.1 0 0 0 .8-8.82l-12.7 1.2.02.6"/><path fill="#F89D28" d="M92.13 59.57l-10.14 7.7a29.43 29.43 0 0 0 6.62 6l6.7-10.83a16.6 16.6 0 0 1-3.18-2.87"/><path fill="#1995D3" d="M88.4 46.3c.22-1.44.64-2.81 1.21-4.1l-11.4-5.67a28.99 28.99 0 0 0-2.52 8.62l12.7 1.14z"/><path fill="#A11C43" d="M119.43 74.07l-6.7-10.84a16.4 16.4 0 0 1-3.9 1.59l2.36 12.53c2.94-.67 5.71-1.8 8.24-3.28"/><path fill="#27BCE1" d="M120.25 54.17a16.45 16.45 0 0 1-1.78 3.67l10.18 7.67c1.65-2.37 2.95-5 3.85-7.82l-12.25-3.52z"/><path fill="#F16A2B" d="M107.03 65.18a16.58 16.58 0 0 1-4.3.06l-2.35 12.54a29.43 29.43 0 0 0 9-.07l-2.35-12.53z"/><path fill="#E7223B" d="M105.7 32.46c1.42.1 2.78.36 4.08.79l4.58-11.9a29.02 29.02 0 0 0-8.65-1.63v12.74z"/><path fill="#DC1768" d="M100.92 64.93a16.38 16.38 0 0 1-4.04-1.53l-6.7 10.85a29.07 29.07 0 0 0 8.38 3.2l2.36-12.52z"/><path fill="#17486A" d="M99.7 33.19c1.33-.42 2.72-.67 4.16-.74V19.7c-3.06.09-6 .64-8.76 1.6l4.6 11.89z"/><path fill="#C6972D" d="M91.01 58.1c-.8-1.2-1.46-2.5-1.94-3.9l-12.25 3.52a29.1 29.1 0 0 0 4.05 8.1L91 58.1z"/><path fill="#03699C" d="M94.45 35.98a16.46 16.46 0 0 1 3.53-2.14l-4.6-11.88a29.2 29.2 0 0 0-7.52 4.6l8.6 9.42z"/></g></svg>